<svg width="24" height="24" viewBox="0 0 24 24" fill="none" xmlns="http://www.w3.org/2000/svg">
<path d="M14.707 7.29308C14.6148 7.19757 14.5044 7.12139 14.3824 7.06898C14.2604 7.01657 14.1292 6.98898 13.9964 6.98783C13.8636 6.98668 13.7319 7.01198 13.609 7.06226C13.4861 7.11254 13.3745 7.18679 13.2806 7.28069C13.1867 7.37458 13.1125 7.48623 13.0622 7.60913C13.0119 7.73202 12.9866 7.8637 12.9877 7.99648C12.9889 8.12926 13.0165 8.26048 13.0689 8.38249C13.1213 8.50449 13.1975 8.61483 13.293 8.70708L15.586 11.0001H6C5.73478 11.0001 5.48043 11.1054 5.29289 11.293C5.10536 11.4805 5 11.7349 5 12.0001C5 12.2653 5.10536 12.5197 5.29289 12.7072C5.48043 12.8947 5.73478 13.0001 6 13.0001H15.586L13.293 15.2931C13.1108 15.4817 13.01 15.7343 13.0123 15.9965C13.0146 16.2587 13.1198 16.5095 13.3052 16.6949C13.4906 16.8803 13.7414 16.9855 14.0036 16.9878C14.2658 16.99 14.5184 16.8892 14.707 16.7071L18.707 12.7071C18.8945 12.5196 18.9998 12.2652 18.9998 12.0001C18.9998 11.7349 18.8945 11.4806 18.707 11.2931L14.707 7.29308Z" fill="white"/>
</svg>
