<svg width="25" height="21" viewBox="0 0 25 21" fill="none" xmlns="http://www.w3.org/2000/svg">
<path d="M17.3343 0.626597C17.1696 0.430564 16.9725 0.274202 16.7546 0.166634C16.5368 0.0590658 16.3025 0.00244567 16.0653 7.74954e-05C15.8282 -0.00229068 15.5931 0.04964 15.3736 0.15284C15.1542 0.25604 14.9548 0.408443 14.7871 0.601155C14.6194 0.793868 14.4868 1.02303 14.3971 1.27527C14.3073 1.52751 14.2621 1.79778 14.2641 2.07031C14.2662 2.34284 14.3155 2.61216 14.4091 2.86257C14.5026 3.11298 14.6387 3.33946 14.8092 3.52879L18.904 8.23512H1.78575C1.31214 8.23512 0.857928 8.45136 0.523035 8.83627C0.188142 9.22119 0 9.74324 0 10.2876C0 10.8319 0.188142 11.354 0.523035 11.7389C0.857928 12.1238 1.31214 12.3401 1.78575 12.3401H18.904L14.8092 17.0464C14.484 17.4335 14.304 17.9519 14.308 18.4901C14.3121 19.0283 14.4999 19.543 14.831 19.9236C15.1621 20.3041 15.61 20.52 16.0782 20.5247C16.5464 20.5293 16.9975 20.3225 17.3343 19.9486L24.4773 11.7387C24.8121 11.3538 25.0001 10.8318 25.0001 10.2876C25.0001 9.74335 24.8121 9.22139 24.4773 8.83649L17.3343 0.626597Z" fill="white"/>
</svg>
