<svg width="23" height="111" viewBox="0 0 23 111" fill="none" xmlns="http://www.w3.org/2000/svg">
<path d="M15.9475 3.37288C15.7959 2.31766 15.6146 1.47599 15.4142 0.896966C15.2137 0.317943 14.9982 0.0131647 14.78 0.000417146C14.5619 -0.0123304 14.3456 0.267205 14.1436 0.822716C13.9417 1.37823 13.7583 2.19859 13.6041 3.23593C13.4498 4.27327 13.3278 5.50682 13.2452 6.8646C13.1626 8.22238 13.121 9.6772 13.1229 11.1442C13.1248 12.6111 13.1701 14.0609 13.2562 15.4088C13.3424 16.7567 13.4675 17.9758 13.6244 18.995L17.3916 44.3284H1.64288C1.20716 44.3284 0.78929 45.4924 0.481189 47.5644C0.173089 49.6363 0 52.4464 0 55.3766C0 58.3067 0.173089 61.1169 0.481189 63.1888C0.78929 65.2607 1.20716 66.4247 1.64288 66.4247H17.3916L13.6244 91.7582C13.3252 93.8419 13.1596 96.6327 13.1633 99.5295C13.1671 102.426 13.3398 105.197 13.6444 107.246C13.949 109.294 14.3611 110.456 14.7919 110.481C15.2226 110.506 15.6376 109.393 15.9475 107.38L22.519 63.1876C22.827 61.1158 23 58.3062 23 55.3766C23 52.447 22.827 49.6374 22.519 47.5655L15.9475 3.37288Z" fill="white"/>
</svg>
